<svg xmlns="http://www.w3.org/2000/svg" viewBox="0 0 359.05 558.87"><defs><style>.cls-1{fill:#fff;}.cls-2{fill:#962814;}.cls-3{fill:#d5a9a1;}.cls-4{fill:#c07e72;}</style></defs><g id="Vrstva_2" data-name="Vrstva 2"><g id="Vrstva_1-2" data-name="Vrstva 1"><g id="card_back" data-name="card back"><rect class="cls-1" width="359.05" height="558.87"/><rect class="cls-2" x="23.12" y="21.74" width="312.82" height="515.38" rx="11.88"/><path class="cls-3" d="M179.53,288.25c-7.52,0-16.63-3.56-20.21-8.82a20.21,20.21,0,1,0,40.41,0C195,285,187,288.25,179.53,288.25Z"/><path class="cls-3" d="M179.53,270.3c8.2,0,16.37,4,20.2,9.13a20.21,20.21,0,0,0-40.41,0C162.23,274.44,171.19,270.3,179.53,270.3Z"/><ellipse class="cls-3" cx="179.53" cy="279.43" rx="9.06" ry="9.75"/><path class="cls-3" d="M271.12,291.08c-3.55-.72-8.33,1.89-13.61,2.06s-8.67-2.12-13.17-6.39a18.77,18.77,0,0,0-13.5-4.89,117.71,117.71,0,0,1-14.16,0c3.27-1.22,3.5-1.89,7.83-4.56s6.61-6.78,12.33-7.33,11.5,2.55,16.06,2.42,9.78-4.2,11.89-7.25,4.5-3.89,8.5-4.84c-3.56-.22-7.72,1-12.39,4s-11.56,2.78-15.83.34-12.45-2.17-15.39-1.06-9.06,4.5-14.56,6.28c1.95-1,3.67-2.89,5.56-7.39A25.74,25.74,0,0,1,231.62,251c4.06-1.91,9.89-.48,16.5-4.48,3.22-1.95,5.67-6.22,6.39-9.89s3.39-5.33,6.83-7.33c-2.33.76-4.55.94-6.44,2.39-4.5,3.43-2.14,8-10.45,11.27-6.11,2.45-15.4.29-21.06,2.84-3.95,1.78-8.66,8.5-14.27,12.61,4.56-4.89,3.17-11.17,4.42-17.11s6.25-6.34,13.53-10.23,7.55-9.44,7.83-15.72,2.89-9.11,4.33-11.72c-7,5.28-6.66,11.89-8,15.67s-6.72,7.22-14.94,9.5-10.75,8.8-11,11.38c-.39,4.12-1.45,7.28-5.56,10.28a24.94,24.94,0,0,0-.33-12.89c-3-9.72,2.94-14.83,5.33-17.38s7.67-7.89,5.39-14.67-1.55-11.61-1-15.56c-2.39,3.06-2.67,8.5-1.83,14,.75,5-2.5,8.61-5.72,11.73s-10.95,7.5-11.23,14.5,0,11.22-1.89,13.83c.06-8.06-8.27-9.61-8.44-18.83-.12-6.9,4.72-13.73,4.94-18.67s-4.38-10.78-6-13.11-2.22-6.28-2.55-10.89a20.31,20.31,0,0,0-1,4.5c-.71,5.69,3.22,9.61,4.55,13.61s-.94,9.94-4,14.17-3.88,11.44-3,16.89,3.19,6.22,2.35,12.66c-1.05-5.83-9.26-7.78-13.07-13.16-3.5-4.95-2.06-13.73-2.56-19.5s-6.94-10-9.33-11.56-4.34-4.39-5.72-8.5c.11,1.28-.21,4.21.33,6.11,1.27,4.46,7.67,5.56,9.72,14.33.76,3.24-2.22,16.95.11,21.62s5.11,4.77,8.39,13.55c-5.61-6.22-12.5-3.28-18.89-9.61-3.33-3.3-3.61-10.17-7.33-15.94s-9.28-5.78-13.67-7.23a18.38,18.38,0,0,1-7.55-5.44s.72,1.83,1.77,4.22c2,4.41,9,2.83,14.23,9.28,4.1,5.07,1.11,15.89,7.66,22.11s10,3.11,13.34,10.11c0,0-.61.11-3.23-.72s-8.5.33-13.55-.33-6.89-3.06-10.22-7.39-6.67-7.78-10.06-9.06-11.55-.61-16.72-.78S92,234.52,92,234.52a31.45,31.45,0,0,0,2.61,2.73c2.4,2,9.78,2.44,15.22,2.94S117,243.69,120,250s11.39,10.94,14.67,11.33,6.89.28,10.61,4c-5.28-1-9,3.11-13.28,4.56s-12.17-.28-16.22-3.95-9.67-4.11-13.56-3.66-8.12,3.81-11.62,4.21c-2.26.26-4.44-.5-8.5,0,2.44.22,6,2.18,9.68,2.23S96.57,266.41,103,266s9.67,5.73,13.67,8.78,13.22,3.56,17,2.34,5.39-.89,10.39-.06c0,0-.78,1.44-4.78,2.35s-5.61,6-10.72,9.09-12.39-.5-16.39-1.22-9.72-.11-12,3.06a38.51,38.51,0,0,1-11,9.28c6.94-.55,8-4.17,12.16-6.56s10.67-.83,13.73,1.28c3.66,2.53,13,2.5,17.66-.06s8.39-4.61,12.28-4.33a20.71,20.71,0,0,0-6.17,6c-2.46,4-1.94,6.28-6.72,10.5s-11.78,3-18.33,5-6.78,7.73-9.17,12.06a20.53,20.53,0,0,1-6.11,6.72,14.2,14.2,0,0,0,5.94-3.22c3-2.61,4.73-7.78,8.84-10.5s14.5-.72,18.78-1.67,9.66-5.39,11.44-8.16a12.48,12.48,0,0,1,6.72-5.28c-1.78,1.28-2.39,2.67-3,6s-.79,10.05-3,13.39c-3.5,5.17-9.06,5.78-13.67,9.06-4.06,2.88-5.72,10.33-5.78,13.67s-.72,5.27-3.28,9.72c1.23-.95,3.89-2.72,4.56-4.22,1.7-3.83,1.06-9,6-13.39s9.94-3.5,14.78-6.61a17.28,17.28,0,0,0,7.55-10.84c.5-2.89,1.78-3.94,4.95-8.16-.89,1.16-1.06,3.66-.56,6.5.48,2.68,2.89,6.61,2.45,12s-4.78,9.16-8.61,12.72-5.06,12.11-3.17,15.78,2,7,1.61,11.33a16.05,16.05,0,0,0,1.83-9.56,16.15,16.15,0,0,1,1.73-11.16c2.16-4.28,8.72-6.78,12.66-12.39s2-12.17,1.78-14.45,1-4.55,2.44-6.39c-.22,2.28.34,5.78,4.5,11.06s4,9.61,3.23,13.72-4.06,7.56-4.39,14.17,3.78,9.22,5.78,12.44,1.83,5.34,2.33,9.78c1-2,1.06-2.91,1.33-5.78.38-4.09-4.61-10.05-4.7-15.77s5.48-10.45,7.37-16.5-1.22-10.89-2.39-13.84-.39-3-.78-8.83a13.94,13.94,0,0,0,7.61,8.89c4.84,2.16,6.78,4.89,8,10.61s-.11,12.83.61,16,3.67,5.5,7.89,8.17A20,20,0,0,1,216,367.8c.06-5.72-2.78-8.11-6.22-11.11s-4.06-6.67-4.61-10.89,1.16-11.72.66-17.11-4.94-8.72-7.05-10.28-2.14-3.72-2.84-6.72c.73,1.28,2.5,2.5,5.67,4.56s7.95,2,12.5,4.94,6.39,12.67,8.39,16.89,7.33,5.89,12.22,7.44A42.88,42.88,0,0,1,245,350.36c-1.44-4-8.11-8.28-12.67-9.89-4.1-1.45-6.83-8.06-7.05-12.33s-2.84-12.28-7.61-14.89-6.67-4.39-11-8.06c2.67,1.39,5.11,1,10.45.72s8.77.06,11.77,2,7.56,10.55,14,13.72c3.81,1.88,11,.5,14.39.27s6.16,1.67,8.78,4.61c-2.28-5.16-5.84-7.22-10.89-7.38S241.84,316,240,311.41s-7.38-10.89-11.33-12.5-12.55-1.66-14.55-4.55c2.83.28,5.44-1,9.05-2.5s8.67-3.28,12.89-2.34,14.61,8.06,19.67,8.23,8.11-3.23,13.05-4.34a19.89,19.89,0,0,1,8.89,0A25.87,25.87,0,0,0,271.12,291.08Zm-91.59,16.84A28.49,28.49,0,1,1,208,279.43,28.48,28.48,0,0,1,179.53,307.92Z"/><path class="cls-4" d="M30.57,47.69l-7.45,91.67V36.86c0-11,3.95-15.12,14.78-15.12h85L47.4,29.36l30,15L46.07,36.19,91.4,89,36.23,45.69l9.67,29.5Z"/><path class="cls-4" d="M328.48,47.69l7.45,91.67V36.86c0-11-3.95-15.12-14.78-15.12h-85l75.5,7.62-30,15L313,36.19,267.65,89l55.17-43.33-9.67,29.5Z"/><path class="cls-4" d="M30.57,511.18l-7.45-91.67V522c0,11,3.95,15.12,14.78,15.12h85l-75.5-7.62,30-15-31.33,8.17L91.4,469.84,36.23,513.18l9.67-29.5Z"/><path class="cls-4" d="M328.48,511.18l7.45-91.67V522c0,11-3.95,15.12-14.78,15.12h-85l75.5-7.62-30-15L313,522.68l-45.33-52.84,55.17,43.34-9.67-29.5Z"/><path class="cls-4" d="M23.12,266.25l8.39-13.95s-4.56,15.17-4.2,15.17S58,242.14,58,242.14L33.4,273.08l15.89-5.39-13.84,8.95L76,279.8,35.4,284.08l14.67,7.78-17-3.89,26.33,29.94L27.57,293.64s3.83,13,3.72,12.61-8.17-11.84-8.17-11.84Z"/><path class="cls-4" d="M335.93,266.25l-8.39-13.95s4.56,15.17,4.2,15.17-30.64-25.33-30.64-25.33l24.55,30.94-15.89-5.39,13.84,8.95-40.5,3.16,40.55,4.28L309,291.86,325.93,288,299.6,317.91l31.88-24.27s-3.83,13-3.72,12.61,8.17-11.84,8.17-11.84Z"/><polygon class="cls-3" points="240.41 110.86 240.41 114.11 221.91 112.86 240.41 110.86"/><polygon class="cls-3" points="243.66 110.86 240.41 110.86 241.66 92.36 243.66 110.86"/><polygon class="cls-3" points="243.66 114.11 243.66 110.86 262.16 112.11 243.66 114.11"/><polygon class="cls-3" points="240.41 114.11 243.66 114.11 242.41 132.61 240.41 114.11"/><polygon class="cls-3" points="116.39 110.86 116.39 114.11 97.89 112.86 116.39 110.86"/><polygon class="cls-3" points="119.64 110.86 116.39 110.86 117.64 92.36 119.64 110.86"/><polygon class="cls-3" points="119.64 114.11 119.64 110.86 138.13 112.11 119.64 114.11"/><polygon class="cls-3" points="116.39 114.11 119.64 114.11 118.39 132.61 116.39 114.11"/><polygon class="cls-3" points="176.62 137.05 176.62 141 154.12 139.03 176.62 137.05"/><polygon class="cls-3" points="181.9 136.27 177.95 136.27 179.93 113.78 181.9 136.27"/><polygon class="cls-3" points="182.99 141 182.99 137.05 205.48 139.03 182.99 141"/><polygon class="cls-3" points="177.95 141.96 181.9 141.96 180.13 164.46 177.95 141.96"/><circle class="cls-3" cx="209.07" cy="139.02" r="2.08"/><circle class="cls-3" cx="215.09" cy="139.02" r="1.13"/><circle class="cls-3" cx="149.91" cy="139.02" r="2.08"/><circle class="cls-3" cx="143.79" cy="139.02" r="1.13"/><circle class="cls-3" cx="132.01" cy="91.41" r="2.08"/><circle class="cls-3" cx="138.13" cy="91.41" r="1.13"/><circle class="cls-3" cx="133.73" cy="79.36" r="2.08"/><circle class="cls-3" cx="139.58" cy="81.17" r="1.13"/><circle class="cls-3" cx="138.4" cy="68.25" r="2.08"/><circle class="cls-3" cx="143.63" cy="71.43" r="1.12"/><circle class="cls-3" cx="145.95" cy="58.3" r="2.08"/><circle class="cls-3" cx="150.2" cy="62.71" r="1.12"/><circle class="cls-3" cx="156.07" cy="50.91" r="2.08"/><circle class="cls-3" cx="159.02" cy="56.28" r="1.13"/><circle class="cls-3" cx="167.68" cy="46.47" r="2.08"/><circle class="cls-3" cx="169.1" cy="52.43" r="1.13"/><circle class="cls-3" cx="179.82" cy="44.79" r="2.08"/><circle class="cls-3" cx="179.82" cy="50.91" r="1.13"/><circle class="cls-3" cx="192.2" cy="46.25" r="2.08"/><circle class="cls-3" cx="190.23" cy="52.04" r="1.13"/><circle class="cls-3" cx="203.43" cy="51.05" r="2.08"/><circle class="cls-3" cx="200.13" cy="56.21" r="1.12"/><circle class="cls-3" cx="213.54" cy="58.72" r="2.08"/><circle class="cls-3" cx="208.99" cy="62.83" r="1.12"/><circle class="cls-3" cx="220.98" cy="68.25" r="2.08"/><circle class="cls-3" cx="215.74" cy="71.42" r="1.12"/><circle class="cls-3" cx="226.07" cy="79.3" r="2.08"/><circle class="cls-3" cx="220.19" cy="81.04" r="1.12"/><circle class="cls-3" cx="227.52" cy="91.55" r="2.08"/><circle class="cls-3" cx="221.4" cy="91.55" r="1.12"/><path class="cls-3" d="M179.93,57.34c18.08,0,34.69,13.6,34.69,33.09,0,11.18-4.94,23.68-11.72,27.26,6.09-14.89-1.39-36.52-23-36.52s-29.73,23.35-23.86,36.52c-7.5-6-11.31-15.42-11.31-27.26C144.76,73.69,159.57,57.34,179.93,57.34Z"/><polygon class="cls-3" points="240.41 449.02 240.41 445.77 221.91 447.02 240.41 449.02"/><polygon class="cls-3" points="243.66 449.02 240.41 449.02 241.66 467.52 243.66 449.02"/><polygon class="cls-3" points="243.66 445.77 243.66 449.02 262.16 447.77 243.66 445.77"/><polygon class="cls-3" points="240.41 445.77 243.66 445.77 242.41 427.27 240.41 445.77"/><polygon class="cls-3" points="116.39 449.02 116.39 445.77 97.89 447.02 116.39 449.02"/><polygon class="cls-3" points="119.64 449.02 116.39 449.02 117.64 467.52 119.64 449.02"/><polygon class="cls-3" points="119.64 445.77 119.64 449.02 138.13 447.77 119.64 445.77"/><polygon class="cls-3" points="116.39 445.77 119.64 445.77 118.39 427.27 116.39 445.77"/><polygon class="cls-3" points="176.62 422.83 176.62 418.88 154.12 420.86 176.62 422.83"/><polygon class="cls-3" points="181.9 423.61 177.95 423.61 179.93 446.11 181.9 423.61"/><polygon class="cls-3" points="182.99 418.88 182.99 422.83 205.48 420.86 182.99 418.88"/><polygon class="cls-3" points="177.95 417.92 181.9 417.92 180.13 395.43 177.95 417.92"/><circle class="cls-3" cx="209.07" cy="420.86" r="2.08"/><circle class="cls-3" cx="215.09" cy="420.86" r="1.13"/><circle class="cls-3" cx="149.91" cy="420.86" r="2.08"/><circle class="cls-3" cx="143.79" cy="420.86" r="1.13"/><circle class="cls-3" cx="132.01" cy="468.47" r="2.08"/><circle class="cls-3" cx="138.13" cy="468.47" r="1.13"/><circle class="cls-3" cx="133.73" cy="480.53" r="2.08"/><circle class="cls-3" cx="139.58" cy="478.72" r="1.12"/><circle class="cls-3" cx="138.4" cy="491.64" r="2.08"/><circle class="cls-3" cx="143.63" cy="488.45" r="1.12"/><circle class="cls-3" cx="145.95" cy="501.58" r="2.08"/><circle class="cls-3" cx="150.2" cy="497.17" r="1.12"/><circle class="cls-3" cx="156.07" cy="508.97" r="2.08"/><circle class="cls-3" cx="159.02" cy="503.6" r="1.13"/><circle class="cls-3" cx="167.68" cy="513.41" r="2.08"/><circle class="cls-3" cx="169.1" cy="507.46" r="1.13"/><circle class="cls-3" cx="179.82" cy="515.09" r="2.08"/><circle class="cls-3" cx="179.82" cy="508.97" r="1.12"/><circle class="cls-3" cx="192.2" cy="513.64" r="2.08"/><circle class="cls-3" cx="190.23" cy="507.84" r="1.13"/><circle class="cls-3" cx="203.43" cy="508.83" r="2.08"/><circle class="cls-3" cx="200.13" cy="503.67" r="1.12"/><circle class="cls-3" cx="213.54" cy="501.16" r="2.08"/><circle class="cls-3" cx="208.99" cy="497.05" r="1.12"/><circle class="cls-3" cx="220.98" cy="491.64" r="2.08"/><circle class="cls-3" cx="215.74" cy="488.46" r="1.12"/><circle class="cls-3" cx="226.07" cy="480.58" r="2.08"/><circle class="cls-3" cx="220.19" cy="478.84" r="1.12"/><circle class="cls-3" cx="227.52" cy="468.33" r="2.08"/><circle class="cls-3" cx="221.4" cy="468.33" r="1.12"/><path class="cls-3" d="M179.93,502.55c18.08,0,34.69-13.61,34.69-33.09,0-11.18-4.94-23.68-11.72-27.27,6.09,14.89-1.39,36.53-23,36.53s-29.73-23.36-23.86-36.53c-7.5,6-11.31,15.42-11.31,27.27C144.76,486.19,159.57,502.55,179.93,502.55Z"/><polygon class="cls-3" points="67.74 192.41 67.74 194.2 57.56 193.31 67.74 192.41"/><polygon class="cls-3" points="69.66 192.26 67.87 192.26 68.76 182.08 69.66 192.26"/><polygon class="cls-3" points="69.77 194.2 69.77 192.41 79.95 193.31 69.77 194.2"/><polygon class="cls-3" points="67.87 194.31 69.66 194.31 68.85 204.49 67.87 194.31"/><polygon class="cls-3" points="51.77 169.85 51.77 171.11 47.22 170.48 51.77 169.85"/><polygon class="cls-3" points="53.11 169.75 51.86 169.75 52.49 165.2 53.11 169.75"/><polygon class="cls-3" points="53.2 171.11 53.2 169.85 57.75 170.48 53.2 171.11"/><polygon class="cls-3" points="51.86 171.19 53.11 171.19 52.55 175.74 51.86 171.19"/><path class="cls-3" d="M104.08,146.51c9.44,12.14,8.76,30.8-2.41,41.13a26.83,26.83,0,0,1-21.55,7.15c15.86-7,18.94-26,10.57-38S65,144,52.17,154.18C53.05,147,63.59,138,70.74,136.05,80.17,133.52,95.05,134.89,104.08,146.51Z"/><circle class="cls-3" cx="52.48" cy="160.11" r="1.47"/><circle class="cls-3" cx="53.45" cy="180.15" r="1.68"/><circle class="cls-3" cx="58.68" cy="186.83" r="2.7"/><polygon class="cls-3" points="290.32 192.41 290.32 194.2 300.5 193.31 290.32 192.41"/><polygon class="cls-3" points="288.4 192.26 290.19 192.26 289.3 182.08 288.4 192.26"/><polygon class="cls-3" points="288.28 194.2 288.28 192.41 278.1 193.31 288.28 194.2"/><polygon class="cls-3" points="290.19 194.31 288.4 194.31 289.2 204.49 290.19 194.31"/><polygon class="cls-3" points="306.29 169.85 306.29 171.11 310.84 170.48 306.29 169.85"/><polygon class="cls-3" points="304.94 169.75 306.2 169.75 305.57 165.2 304.94 169.75"/><polygon class="cls-3" points="304.86 171.11 304.86 169.85 300.31 170.48 304.86 171.11"/><polygon class="cls-3" points="306.2 171.19 304.94 171.19 305.5 175.74 306.2 171.19"/><path class="cls-3" d="M254,146.51c-9.44,12.14-8.76,30.8,2.41,41.13a26.85,26.85,0,0,0,21.56,7.15c-15.86-7-18.94-26-10.58-38s25.71-12.81,38.52-2.61C305,147,294.47,138,287.32,136.05,277.89,133.52,263,134.89,254,146.51Z"/><circle class="cls-3" cx="305.57" cy="160.11" r="1.47"/><circle class="cls-3" cx="304.6" cy="180.15" r="1.68"/><circle class="cls-3" cx="299.37" cy="186.83" r="2.7"/><polygon class="cls-3" points="67.74 366.89 67.74 365.1 57.56 365.99 67.74 366.89"/><polygon class="cls-3" points="69.66 367.04 67.87 367.04 68.76 377.22 69.66 367.04"/><polygon class="cls-3" points="69.77 365.1 69.77 366.89 79.95 365.99 69.77 365.1"/><polygon class="cls-3" points="67.87 364.99 69.66 364.99 68.85 354.81 67.87 364.99"/><polygon class="cls-3" points="51.77 389.44 51.77 388.19 47.22 388.82 51.77 389.44"/><polygon class="cls-3" points="53.11 389.55 51.86 389.55 52.49 394.1 53.11 389.55"/><polygon class="cls-3" points="53.2 388.19 53.2 389.44 57.75 388.82 53.2 388.19"/><polygon class="cls-3" points="51.86 388.12 53.11 388.12 52.55 383.56 51.86 388.12"/><path class="cls-3" d="M104.08,412.79c9.44-12.14,8.76-30.8-2.41-41.13a26.83,26.83,0,0,0-21.55-7.15c15.86,7,18.94,26,10.57,38S65,415.32,52.17,405.12c.88,7.15,11.42,16.21,18.57,18.13C80.17,425.78,95.05,424.41,104.08,412.79Z"/><circle class="cls-3" cx="52.48" cy="399.19" r="1.47"/><circle class="cls-3" cx="53.45" cy="379.15" r="1.68"/><circle class="cls-3" cx="58.68" cy="372.47" r="2.7"/><polygon class="cls-3" points="290.32 366.89 290.32 365.1 300.5 365.99 290.32 366.89"/><polygon class="cls-3" points="288.4 367.04 290.19 367.04 289.3 377.22 288.4 367.04"/><polygon class="cls-3" points="288.28 365.1 288.28 366.89 278.1 365.99 288.28 365.1"/><polygon class="cls-3" points="290.19 364.99 288.4 364.99 289.2 354.81 290.19 364.99"/><polygon class="cls-3" points="306.29 389.44 306.29 388.19 310.84 388.82 306.29 389.44"/><polygon class="cls-3" points="304.94 389.55 306.2 389.55 305.57 394.1 304.94 389.55"/><polygon class="cls-3" points="304.86 388.19 304.86 389.44 300.31 388.82 304.86 388.19"/><polygon class="cls-3" points="306.2 388.12 304.94 388.12 305.5 383.56 306.2 388.12"/><path class="cls-3" d="M254,412.79c-9.44-12.14-8.76-30.8,2.41-41.13a26.85,26.85,0,0,1,21.56-7.15c-15.86,7-18.94,26-10.58,38s25.71,12.81,38.52,2.61c-.87,7.15-11.41,16.21-18.56,18.13C277.89,425.78,263,424.41,254,412.79Z"/><circle class="cls-3" cx="305.57" cy="399.19" r="1.47"/><circle class="cls-3" cx="304.6" cy="379.15" r="1.68"/><circle class="cls-3" cx="299.37" cy="372.47" r="2.7"/></g></g></g></svg>