<?xml version="1.0" encoding="utf-8"?>
<!-- Generator: Adobe Illustrator 26.0.2, SVG Export Plug-In . SVG Version: 6.00 Build 0)  -->
<svg version="1.1" id="Vrstva_1" xmlns="http://www.w3.org/2000/svg" xmlns:xlink="http://www.w3.org/1999/xlink" x="0px" y="0px"
	 viewBox="0 0 37.8 38.3" style="enable-background:new 0 0 37.8 38.3;" xml:space="preserve">
<style type="text/css">
	.st0{fill:#FFFFFF;}
	.st1{fill:#962814;}
	.st2{fill:#D5A9A1;}
</style>
<path class="st0" d="M19.3,8.2c-0.2-0.7-0.8-1.1-1.5-1L3.6,10.3c-0.7,0.1-1.1,0.8-1,1.5l5.2,23.7c0.2,0.7,0.8,1.1,1.5,1l14.2-3.1
	c0.7-0.1,1.1-0.8,1-1.5L19.3,8.2z"/>
<path class="st1" d="M17.7,8.3l-13.4,3C4,11.4,3.8,11.7,3.9,12l4.9,23c0.1,0.3,0.4,0.5,0.7,0.4l13.4-3c0.3-0.1,0.5-0.4,0.4-0.7
	l-5-23C18.3,8.4,18,8.2,17.7,8.3z"/>
<path class="st0" d="M26.7,5.9c0-0.7-0.6-1.2-1.3-1.2L10.8,5.5c-0.7,0-1.2,0.6-1.2,1.3L10.9,31c0,0.7,0.6,1.2,1.3,1.2l14.6-0.7
	c0.7,0,1.2-0.6,1.2-1.3L26.7,5.9z"/>
<path class="st2" d="M25,5.8L11.3,6.5c-0.3,0-0.6,0.3-0.5,0.6l1.3,23.6c0,0.3,0.3,0.6,0.6,0.5l13.6-0.7c0.3,0,0.6-0.3,0.5-0.6
	L25.6,6.3C25.6,6,25.3,5.8,25,5.8z"/>
<path class="st0" d="M34.2,5.3c0.1-0.7-0.4-1.3-1.1-1.4L18.6,2.1c-0.7-0.1-1.3,0.4-1.4,1.1l-3,24.1c-0.1,0.7,0.4,1.3,1.1,1.4
	l14.5,1.9c0.7,0.1,1.3-0.4,1.4-1.1L34.2,5.3z"/>
<path class="st1" d="M32.5,4.9L18.9,3.1c-0.3,0-0.6,0.2-0.6,0.5L15.4,27c0,0.3,0.2,0.6,0.5,0.6l13.7,1.8c0.3,0,0.6-0.2,0.6-0.5
	l2.9-23.4C33.1,5.2,32.8,4.9,32.5,4.9z"/>
</svg>
