<svg width="180" height="175" viewBox="0 0 180 175" fill="none" xmlns="http://www.w3.org/2000/svg">
<path d="M94.9069 34.9398C94.9069 31.0738 91.7729 27.9398 87.9069 27.9398H7C3.13401 27.9398 0 31.0738 0 34.9398V168C0 171.866 3.13401 175 7 175H87.9069C91.7729 175 94.9069 171.866 94.9069 168V34.9398Z" fill="white"/>
<path d="M85.6581 33.6604H9.2515C7.51721 33.6604 6.11129 35.06 6.11129 36.7865V166.151C6.11129 167.877 7.51721 169.277 9.2515 169.277H85.6581C87.3924 169.277 88.7984 167.877 88.7984 166.151V36.7865C88.7984 35.06 87.3924 33.6604 85.6581 33.6604Z" fill="#962814"/>
<path d="M137.515 31.5903C138.152 27.7729 135.569 24.1638 131.751 23.5333L51.9366 10.3529C48.1262 9.72368 44.5261 12.2993 43.8913 16.1088L22.0177 147.377C21.3816 151.194 23.9637 154.803 27.7819 155.434L107.596 168.614C111.407 169.244 115.007 166.668 115.642 162.858L137.515 31.5903Z" fill="white"/>
<path d="M128.603 28.8122L53.2266 16.3647C51.5156 16.0822 49.8986 17.2339 49.6148 18.9371L28.349 146.557C28.0652 148.261 29.2221 149.87 30.933 150.153L106.31 162.6C108.021 162.883 109.638 161.731 109.921 160.028L131.187 32.4077C131.471 30.7045 130.314 29.0947 128.603 28.8122Z" fill="#D5A9A1"/>
<path d="M178.643 37.2088C179.944 33.5599 178.033 29.5484 174.381 28.2581L98.1391 1.32501C94.5012 0.0398915 90.5093 1.94069 89.2138 5.57493L44.5118 130.981C43.2111 134.629 45.1213 138.641 48.7738 139.931L125.016 166.864C128.654 168.149 132.645 166.249 133.941 162.614L178.643 37.2088Z" fill="white"/>
<path d="M170.362 32.9085L98.3546 7.47127C96.7202 6.89389 94.925 7.74485 94.345 9.37193L50.887 131.288C50.307 132.915 51.1618 134.702 52.7962 135.279L124.804 160.716C126.438 161.294 128.233 160.443 128.813 158.816L172.271 36.9C172.851 35.273 171.996 33.4859 170.362 32.9085Z" fill="#962814"/>
</svg>
